<?xml version="1.0" encoding="utf-8"?>
<!-- Generator: Adobe Illustrator 21.1.0, SVG Export Plug-In . SVG Version: 6.00 Build 0)  -->
<svg version="1.1" id="Layer_1" xmlns="http://www.w3.org/2000/svg" xmlns:xlink="http://www.w3.org/1999/xlink" x="0px" y="0px"
	 viewBox="0 0 500 500" style="enable-background:new 0 0 500 500;" xml:space="preserve">
<style type="text/css">
	.st0{fill:none;stroke:#FFFFFF;stroke-miterlimit:10;}
	.st1{fill:#FFFFFF;}
	.st2{font-family:'Gotham-Medium';}
	.st3{font-size:15.231px;}
</style>
<g>
	<line class="st0" x1="250" y1="47" x2="250" y2="249"/>
	<line class="st0" x1="408.8" y1="123.6" x2="250.8" y2="249.4"/>
	<line class="st0" x1="447.9" y1="295.3" x2="251" y2="250.2"/>
	<line class="st0" x1="338" y1="433" x2="250.5" y2="250.9"/>
	<line class="st0" x1="161.8" y1="432.8" x2="249.6" y2="250.9"/>
	<line class="st0" x1="52.1" y1="295" x2="249.1" y2="250.2"/>
	<line class="st0" x1="91.4" y1="123.3" x2="249.3" y2="249.4"/>
</g>
<text transform="matrix(1 0 0 1 199.4912 29.8906)" class="st1 st2 st3">Acousticness</text>
<text transform="matrix(1 0 0 1 349.165 117.3232)" class="st1 st2 st3">Danceability</text>
<text transform="matrix(1 0 0 1 404.6787 279.4858)" class="st1 st2 st3">Energy</text>
<text transform="matrix(1 0 0 1 263.5562 448.1982)" class="st1 st2 st3">Instrumentalness</text>
<text transform="matrix(1 0 0 1 131.2305 448.1982)" class="st1 st2 st3">Liveness</text>
<text transform="matrix(1 0 0 1 13.8335 279.2446)" class="st1 st2 st3">Speechiness</text>
<text transform="matrix(1 0 0 1 65.9238 117.0815)" class="st1 st2 st3">Valence</text>
</svg>
